<svg width="20" height="20" viewBox="0 0 20 20" fill="none" xmlns="http://www.w3.org/2000/svg">
<g id="copy-01" clip-path="url(#clip0_6151_345)">
<path id="Icon" d="M4.16699 12.5C3.39042 12.5 3.00214 12.5 2.69585 12.3731C2.28747 12.204 1.96302 11.8795 1.79386 11.4711C1.66699 11.1648 1.66699 10.7766 1.66699 9.99999V4.33332C1.66699 3.3999 1.66699 2.93319 1.84865 2.57667C2.00844 2.26307 2.2634 2.0081 2.57701 1.84831C2.93353 1.66666 3.40024 1.66666 4.33366 1.66666H10.0003C10.7769 1.66666 11.1652 1.66666 11.4715 1.79352C11.8798 1.96268 12.2043 2.28714 12.3735 2.69552C12.5003 3.0018 12.5003 3.39009 12.5003 4.16666M10.167 18.3333H15.667C16.6004 18.3333 17.0671 18.3333 17.4236 18.1517C17.7372 17.9919 17.9922 17.7369 18.152 17.4233C18.3337 17.0668 18.3337 16.6001 18.3337 15.6667V10.1667C18.3337 9.23324 18.3337 8.76653 18.152 8.41001C17.9922 8.0964 17.7372 7.84143 17.4236 7.68165C17.0671 7.49999 16.6004 7.49999 15.667 7.49999H10.167C9.23357 7.49999 8.76686 7.49999 8.41034 7.68165C8.09674 7.84143 7.84177 8.0964 7.68198 8.41001C7.50033 8.76653 7.50033 9.23324 7.50033 10.1667V15.6667C7.50033 16.6001 7.50033 17.0668 7.68198 17.4233C7.84177 17.7369 8.09674 17.9919 8.41034 18.1517C8.76686 18.3333 9.23357 18.3333 10.167 18.3333Z" stroke="#344054" stroke-width="1.66667" stroke-linecap="round" stroke-linejoin="round"/>
</g>
<defs>
<clipPath id="clip0_6151_345">
<rect width="20" height="20" fill="white"/>
</clipPath>
</defs>
</svg>
