<svg xmlns="http://www.w3.org/2000/svg" width="4000" height="1200" viewBox="0 0 4000 1200"><rect width="100%" height="100%" fill="#DDDDDD"/><path fill="#999999" d="M850.38 469.69v213.28h-39.82V469.69h39.82Zm78.33 213.28h-36.44V531.64h22.27q7.09 0 9.3 6.63l2.36 11.21q3.98-4.42 8.33-8.11 4.35-3.69 9.29-6.34 4.94-2.66 10.62-4.21 5.68-1.54 12.47-1.54 14.31 0 23.52 7.74 9.22 7.74 13.8 20.57 3.53-7.52 8.85-12.9 5.31-5.38 11.65-8.78 6.34-3.39 13.49-5.01 7.16-1.62 14.39-1.62 12.53 0 22.27 3.83 9.73 3.83 16.37 11.21 6.64 7.37 10.1 18 3.47 10.62 3.47 24.33v96.32h-36.43v-96.32q0-14.45-6.35-21.75-6.34-7.31-18.58-7.31-5.6 0-10.4 1.92-4.79 1.92-8.41 5.53-3.61 3.62-5.67 9.08-2.07 5.45-2.07 12.53v96.32h-36.58v-96.32q0-15.19-6.12-22.12-6.12-6.94-17.92-6.94-7.97 0-14.83 3.91-6.85 3.91-12.75 10.7v110.77Zm290.57-39.09v-25.51q-15.78.73-26.55 2.72-10.77 2-17.26 5.09-6.49 3.1-9.29 7.23-2.8 4.13-2.8 9 0 9.59 5.68 13.72 5.68 4.13 14.82 4.13 11.21 0 19.4-4.06 8.18-4.06 16-12.32Zm-76.99-79.5-6.49-11.65q26.1-23.9 62.83-23.9 13.28 0 23.75 4.35t17.7 12.1q7.23 7.74 10.99 18.51 3.76 10.77 3.76 23.6v95.58h-16.52q-5.17 0-7.97-1.55t-4.42-6.27l-3.25-10.91q-5.75 5.16-11.21 9.07-5.45 3.91-11.35 6.56-5.9 2.66-12.62 4.06-6.71 1.4-14.82 1.4-9.59 0-17.7-2.58t-14.01-7.74q-5.9-5.17-9.15-12.84-3.24-7.67-3.24-17.84 0-5.76 1.92-11.44 1.91-5.67 6.26-10.84 4.36-5.16 11.29-9.73 6.93-4.57 17.03-7.97 10.11-3.39 23.53-5.53 13.42-2.14 30.68-2.58v-8.85q0-15.19-6.49-22.49-6.49-7.31-18.73-7.31-8.85 0-14.68 2.07-5.82 2.07-10.25 4.65-4.42 2.58-8.04 4.64-3.61 2.07-8.04 2.07-3.83 0-6.49-1.99-2.65-1.99-4.27-4.65Zm202.07 39.24q6.78 0 11.8-1.85 5.02-1.84 8.33-5.09 3.32-3.24 5.02-7.81 1.7-4.58 1.7-10.03 0-11.21-6.72-17.78-6.71-6.56-20.13-6.56-13.42 0-20.13 6.56-6.72 6.57-6.72 17.78 0 5.31 1.7 9.88 1.7 4.57 5.02 7.89 3.31 3.32 8.4 5.16 5.09 1.85 11.73 1.85Zm41.15 86.13q0-4.42-2.65-7.22-2.66-2.8-7.23-4.35-4.57-1.55-10.69-2.29-6.13-.74-12.98-1.11-6.86-.36-14.16-.66-7.3-.29-14.24-1.18-6.05 3.39-9.81 7.97-3.76 4.57-3.76 10.61 0 3.99 1.99 7.45 2 3.47 6.35 5.98 4.35 2.5 11.28 3.91 6.93 1.4 16.96 1.4 10.18 0 17.56-1.55 7.37-1.55 12.16-4.28 4.8-2.73 7.01-6.49 2.21-3.76 2.21-8.19Zm-7.23-152.95h43.52v13.57q0 6.49-7.82 7.96l-13.57 2.51q3.1 7.82 3.1 17.11 0 11.21-4.5 20.28t-12.47 15.41q-7.96 6.35-18.8 9.81-10.84 3.47-23.38 3.47-4.42 0-8.56-.44-4.13-.44-8.11-1.18-7.08 4.28-7.08 9.58 0 4.58 4.21 6.72 4.2 2.14 11.13 3.02 6.94.89 15.79 1.11 8.85.22 18.14.96 9.29.73 18.14 2.58 8.85 1.84 15.78 5.82 6.94 3.99 11.14 10.84 4.2 6.86 4.2 17.63 0 10.03-4.94 19.47t-14.31 16.82q-9.36 7.37-23.01 11.87-13.64 4.5-31.04 4.5-17.11 0-29.8-3.32-12.68-3.32-21.09-8.85-8.41-5.53-12.54-12.76-4.13-7.23-4.13-15.05 0-10.62 6.42-17.77 6.41-7.15 17.62-11.43-6.05-3.1-9.58-8.26-3.54-5.16-3.54-13.57 0-3.39 1.25-7.01 1.25-3.61 3.69-7.15 2.43-3.54 6.12-6.71t8.7-5.68q-11.5-6.19-18.07-16.52-6.56-10.33-6.56-24.19 0-11.21 4.5-20.28t12.53-15.49q8.04-6.41 19.03-9.81 10.99-3.39 23.97-3.39 9.74 0 18.29 1.99 8.56 1.99 15.63 5.83Zm95.29 53.1h68.74q0-7.08-2-13.35-1.99-6.27-5.97-10.99-3.98-4.72-10.1-7.45-6.12-2.73-14.24-2.73-15.78 0-24.85 9-9.07 9-11.58 25.52Zm92.93 21.98h-93.67q.89 11.65 4.13 20.13 3.25 8.48 8.56 14.01 5.31 5.53 12.61 8.26 7.3 2.73 16.15 2.73 8.85 0 15.27-2.06 6.41-2.07 11.21-4.58 4.79-2.5 8.4-4.57 3.62-2.06 7.01-2.06 4.57 0 6.78 3.39l10.48 13.27q-6.05 7.08-13.57 11.88-7.53 4.79-15.71 7.67-8.19 2.87-16.67 4.05-8.48 1.18-16.45 1.18-15.78 0-29.35-5.23-13.57-5.24-23.6-15.49-10.03-10.25-15.78-25.37-5.75-15.12-5.75-35.03 0-15.49 5.01-29.13 5.02-13.65 14.38-23.75 9.37-10.1 22.87-16 13.49-5.9 30.45-5.9 14.31 0 26.41 4.57 12.09 4.57 20.8 13.35 8.7 8.77 13.64 21.53 4.94 12.76 4.94 29.13 0 8.26-1.77 11.14-1.77 2.88-6.78 2.88Zm143.95-35.99v67.85q6.2 7.52 13.5 10.62 7.3 3.09 15.86 3.09 8.26 0 14.89-3.09 6.64-3.1 11.29-9.44 4.64-6.35 7.15-16.01 2.51-9.66 2.51-22.79 0-13.27-2.14-22.49-2.14-9.22-6.12-14.97t-9.66-8.41q-5.68-2.66-12.91-2.66-11.36 0-19.32 4.8-7.97 4.79-15.05 13.5Zm-4.86-37.62 2.95 14.01q9.29-10.47 21.09-16.96t27.73-6.49q12.39 0 22.64 5.17 10.25 5.16 17.7 14.97 7.45 9.81 11.51 24.19 4.05 14.38 4.05 32.96 0 16.97-4.57 31.42-4.57 14.46-13.05 25.07-8.49 10.63-20.51 16.6-12.02 5.97-26.92 5.97-12.68 0-21.68-3.91-9-3.9-16.08-10.84v61.95h-36.43V531.64h22.27q7.09 0 9.3 6.63Zm136.43-74.49h36.44v219.19h-36.44V463.78Zm152.81 180.1v-25.51q-15.78.73-26.55 2.72-10.76 2-17.25 5.09-6.49 3.1-9.3 7.23-2.8 4.13-2.8 9 0 9.59 5.68 13.72 5.68 4.13 14.82 4.13 11.21 0 19.4-4.06 8.19-4.06 16-12.32Zm-76.99-79.5-6.49-11.65q26.11-23.9 62.83-23.9 13.28 0 23.75 4.35t17.7 12.1q7.23 7.74 10.99 18.51 3.76 10.77 3.76 23.6v95.58h-16.52q-5.16 0-7.96-1.55-2.81-1.55-4.43-6.27l-3.24-10.91q-5.76 5.16-11.21 9.07-5.46 3.91-11.36 6.56-5.9 2.66-12.61 4.06-6.71 1.4-14.83 1.4-9.58 0-17.7-2.58-8.11-2.58-14.01-7.74-5.9-5.17-9.14-12.84-3.25-7.67-3.25-17.84 0-5.76 1.92-11.44 1.92-5.67 6.27-10.84 4.35-5.16 11.28-9.73t17.04-7.97q10.1-3.39 23.52-5.53 13.43-2.14 30.68-2.58v-8.85q0-15.19-6.49-22.49-6.49-7.31-18.73-7.31-8.85 0-14.67 2.07-5.83 2.07-10.26 4.65-4.42 2.58-8.03 4.64-3.62 2.07-8.04 2.07-3.84 0-6.49-1.99-2.66-1.99-4.28-4.65Zm264.76-14.01-9.58 13.27q-1.63 2.07-3.18 3.25-1.55 1.18-4.5 1.18-2.8 0-5.45-1.7-2.66-1.69-6.35-3.83-3.68-2.14-8.77-3.84-5.09-1.69-12.61-1.69-9.59 0-16.82 3.46-7.23 3.47-12.02 9.96-4.79 6.49-7.15 15.71-2.36 9.22-2.36 20.87 0 12.09 2.58 21.53 2.58 9.44 7.45 15.86 4.86 6.41 11.8 9.73 6.93 3.32 15.63 3.32 8.7 0 14.09-2.14 5.38-2.13 9.07-4.72 3.69-2.58 6.42-4.72 2.72-2.13 6.12-2.13 4.42 0 6.63 3.39l10.48 13.27q-6.05 7.08-13.13 11.88-7.08 4.79-14.68 7.67-7.59 2.87-15.63 4.05-8.04 1.18-16.01 1.18-14.01 0-26.4-5.23-12.39-5.24-21.68-15.27t-14.68-24.56q-5.38-14.53-5.38-33.11 0-16.67 4.79-30.9 4.8-14.24 14.09-24.64 9.29-10.39 23.01-16.29 13.72-5.9 31.56-5.9 16.97 0 29.73 5.45 12.75 5.46 22.93 15.64Zm52.95 39.53h68.74q0-7.08-1.99-13.35t-5.98-10.99q-3.98-4.72-10.1-7.45-6.12-2.73-14.23-2.73-15.79 0-24.86 9t-11.58 25.52Zm92.93 21.98h-93.66q.88 11.65 4.13 20.13 3.24 8.48 8.55 14.01 5.31 5.53 12.61 8.26 7.3 2.73 16.16 2.73 8.84 0 15.26-2.06 6.42-2.07 11.21-4.58 4.79-2.5 8.41-4.57 3.61-2.06 7-2.06 4.58 0 6.79 3.39l10.47 13.27q-6.05 7.08-13.57 11.88-7.52 4.79-15.71 7.67-8.18 2.87-16.66 4.05-8.49 1.18-16.45 1.18-15.78 0-29.35-5.23-13.57-5.24-23.6-15.49-10.03-10.25-15.79-25.37-5.75-15.12-5.75-35.03 0-15.49 5.02-29.13 5.01-13.65 14.38-23.75 9.36-10.1 22.86-16t30.46-5.9q14.31 0 26.4 4.57 12.1 4.57 20.8 13.35 8.7 8.77 13.64 21.53 4.94 12.76 4.94 29.13 0 8.26-1.76 11.14-1.78 2.88-6.79 2.88Zm72.28-148.1v84.08q8.84-8.26 19.46-13.42 10.62-5.16 24.93-5.16 12.39 0 21.98 4.2t16 11.8q6.42 7.6 9.74 18.14 3.32 10.55 3.32 23.23v96.32h-36.43v-96.32q0-13.86-6.35-21.46-6.34-7.6-19.32-7.6-9.44 0-17.7 4.28t-15.63 11.66v109.44h-36.44V463.78h36.44Zm196.91 65.5q16.81 0 30.6 5.45 13.79 5.46 23.6 15.49 9.81 10.03 15.12 24.48 5.31 14.46 5.31 32.31 0 17.99-5.31 32.45-5.31 14.45-15.12 24.63-9.81 10.18-23.6 15.64-13.79 5.45-30.6 5.45-16.96 0-30.83-5.45-13.86-5.46-23.67-15.64-9.81-10.18-15.2-24.63-5.38-14.46-5.38-32.45 0-17.85 5.38-32.31 5.39-14.45 15.2-24.48 9.81-10.03 23.67-15.49 13.87-5.45 30.83-5.45Zm0 127.88q18.88 0 27.95-12.69 9.07-12.68 9.07-37.17 0-24.48-9.07-37.31-9.07-12.84-27.95-12.84-19.18 0-28.4 12.91-9.22 12.91-9.22 37.24 0 24.34 9.22 37.1 9.22 12.76 28.4 12.76Zm102.95-193.38h36.43v219.19h-36.43V463.78Zm167.86 174.35v-67.85q-6.2-7.52-13.5-10.62-7.3-3.1-15.71-3.1-8.26 0-14.9 3.1-6.63 3.1-11.35 9.37t-7.23 15.93q-2.51 9.66-2.51 22.79 0 13.27 2.14 22.49 2.14 9.22 6.12 15.04 3.98 5.83 9.74 8.41 5.75 2.58 12.83 2.58 11.36 0 19.32-4.72 7.97-4.72 15.05-13.42Zm0-174.35h36.43v219.19h-22.27q-7.23 0-9.15-6.64l-3.1-14.6q-9.14 10.47-21.01 16.96-11.88 6.49-27.66 6.49-12.39 0-22.71-5.16-10.33-5.16-17.78-14.97-7.45-9.81-11.5-24.26-4.06-14.46-4.06-33.04 0-16.82 4.57-31.27 4.57-14.46 13.13-25.08 8.55-10.62 20.5-16.59 11.95-5.98 26.85-5.98 12.68 0 21.68 3.98 9 3.99 16.08 10.77v-79.8Zm101.18 126.12h68.74q0-7.08-1.99-13.35t-5.98-10.99q-3.98-4.72-10.1-7.45-6.12-2.73-14.24-2.73-15.78 0-24.85 9-9.07 9-11.58 25.52Zm92.93 21.98h-93.67q.89 11.65 4.13 20.13 3.25 8.48 8.56 14.01 5.31 5.53 12.61 8.26 7.3 2.73 16.15 2.73 8.85 0 15.27-2.06 6.41-2.07 11.21-4.58 4.79-2.5 8.41-4.57 3.61-2.06 7-2.06 4.57 0 6.79 3.39l10.47 13.27q-6.05 7.08-13.57 11.88-7.52 4.79-15.71 7.67-8.19 2.87-16.67 4.05-8.48 1.18-16.44 1.18-15.79 0-29.36-5.23-13.57-5.24-23.6-15.49-10.03-10.25-15.78-25.37-5.75-15.12-5.75-35.03 0-15.49 5.01-29.13 5.02-13.65 14.39-23.75 9.36-10.1 22.86-16 13.49-5.9 30.46-5.9 14.31 0 26.4 4.57 12.09 4.57 20.8 13.35 8.7 8.77 13.64 21.53 4.94 12.76 4.94 29.13 0 8.26-1.77 11.14-1.77 2.88-6.78 2.88Zm68-71.1 2.21 17.11q7.08-13.57 16.81-21.31 9.74-7.75 23.01-7.75 10.48 0 16.82 4.58l-2.36 27.28q-.74 2.66-2.14 3.76-1.4 1.11-3.76 1.11-2.21 0-6.57-.74-4.35-.73-8.48-.73-6.04 0-10.76 1.77t-8.49 5.08q-3.76 3.32-6.63 8.04-2.88 4.72-5.39 10.77v93.22h-36.43V531.64h21.39q5.6 0 7.82 1.99 2.21 1.99 2.95 7.15Z"/></svg>