<svg width="28" height="28" viewBox="0 0 28 28" fill="none" xmlns="http://www.w3.org/2000/svg">
<g id="send-01">
<path id="Icon" d="M12.2493 15.75L24.4993 3.49996M12.3981 16.1327L15.4643 24.017C15.7344 24.7116 15.8694 25.0589 16.064 25.1603C16.2327 25.2482 16.4337 25.2483 16.6025 25.1606C16.7972 25.0594 16.9327 24.7123 17.2036 24.0181L24.8923 4.31569C25.1369 3.68898 25.2592 3.37562 25.1923 3.17539C25.1342 3.0015 24.9977 2.86504 24.8238 2.80695C24.6236 2.74005 24.3103 2.86234 23.6835 3.10691L3.98118 10.7956C3.28692 11.0666 2.9398 11.202 2.83864 11.3968C2.75094 11.5656 2.75106 11.7665 2.83895 11.9352C2.94034 12.1298 3.28763 12.2649 3.9822 12.535L11.8665 15.6011C12.0075 15.6559 12.078 15.6834 12.1374 15.7257C12.19 15.7632 12.236 15.8092 12.2735 15.8619C12.3159 15.9212 12.3433 15.9917 12.3981 16.1327Z" stroke="#10807F" stroke-width="2" stroke-linecap="round" stroke-linejoin="round"/>
</g>
</svg>
